<?xml version="1.0" encoding="UTF-8"?>
<svg version="1.1" viewBox="0 0 1600 1200" width="1280" height="1280" xmlns="http://www.w3.org/2000/svg">
<path transform="translate(499 282)" d="m0 0c1.7 0.00504 3.4 0.0096 5.1 0.0137 4.09 0.0108 8.18 0.028 12.3 0.0488v2c-2.41 1.88-4.83 3.67-7.31 5.44-11.9 8.34-11.9 8.34-20.7 19.6-1.14 12-1.32 25.8 6.12 35.9 0.949 0.701 1.9 1.4 2.88 2.12 0.98 0.772 0.98 0.772 1.98 1.56 27.6 20.8 67.4 33.6 100 44.4 1.11 0.374 2.22 0.747 3.36 1.13 34.8 11.7 75.1 23 112 10.9 0.00935-0.847 0.0187-1.69 0.0283-2.57 0.0442-3.17 0.106-6.33 0.179-9.49 0.0281-1.37 0.0494-2.73 0.0635-4.1 0.0216-1.97 0.0704-3.94 0.12-5.91 0.0209-1.18 0.0419-2.37 0.0635-3.59 1.36-8.34 8.17-12.7 14.5-17.3 3.27-2.3 6.56-4.56 9.87-6.81 3.6-2.51 7.03-5.19 10.4-7.97 1.71-1.21 1.71-1.21 3.71-1.21 0.125 7.52 0.125 7.52-0.482 9.85-0.95 3.94-0.987 7.99-1.21 12-0.0899 1.33-0.0899 1.33-0.182 2.68-0.375 6.89 0.207 12.1 4.93 17.4 9.27 10.1 21 14.4 34.5 15.1 17.3 0.599 35.7 0.896 49.6-10.9 1.73-1.67 3.33-3.35 4.88-5.2 0.776-0.874 0.776-0.874 1.57-1.76 1.78-2.77 1.81-4.43 1.8-7.71-6.45e-4 -1.07-0.00129-2.13-0.00195-3.23-0.0161-1.11-0.0322-2.22-0.0488-3.36 0.00322-1.08 0.00645-2.16 0.00977-3.28-0.0467-7.08-0.81-13.7-2.32-20.7 0.66-0.33 1.32-0.66 2-1 0.848 0.606 1.7 1.21 2.57 1.84 0.56 0.4 1.12 0.8 1.7 1.21 1.25 0.894 2.5 1.79 3.75 2.68 3.27 2.34 6.54 4.67 9.81 6.98 0.922 0.654 0.922 0.654 1.86 1.32 1.17 0.827 2.34 1.65 3.5 2.48 1.61 1.14 3.2 2.32 4.8 3.49 0.539 0.394 1.08 0.787 1.63 1.19 3.74 2.89 5.58 5.46 7.37 9.81 0.341 3.34 0.341 3.34 0.293 6.93-0.0145 1.93-0.0145 1.93-0.0293 3.91-0.0251 1.35-0.0505 2.69-0.0762 4.04-0.0151 1.37-0.0288 2.74-0.041 4.11-0.0353 3.34-0.0846 6.68-0.146 10 1.54 0.134 3.07 0.268 4.61 0.402 1.46 0.128 1.46 0.128 2.96 0.258 2.14 0.186 4.27 0.37 6.41 0.554 8.41 0.723 8.41 0.723 12.5 1.14 48.5 4.86 96.9-16.3 141-35.4 2.3-0.994 4.61-1.99 6.91-2.98 21.6-9.21 21.6-9.21 41.9-21 0.582-0.379 1.16-0.758 1.76-1.15 4.6-3.28 5.98-6.63 7.43-11.9 0.301-0.976 0.301-0.976 0.607-1.97 1.44-5.05 1.76-9.92 1.77-15.2 0.0245-0.772 0.049-1.54 0.0742-2.34 0.0393-7.7-3.54-11.9-8.82-17.3-4.65-4.59-9.67-8.36-15.1-12-4.47-3.04-4.47-3.04-5.56-5.22 63.5-0.975 155-0.128 207 41 1.45 1.12 2.89 2.24 4.34 3.36 3.04 2.35 6.07 4.71 9.09 7.08 4.47 3.5 8.99 6.94 13.5 10.4 5.62 4.28 11.2 8.64 16.6 13.2 2.4 1.98 4.83 3.92 7.27 5.84 15.7 12.5 30.4 26.1 44.4 40.5 0.89 0.902 0.89 0.902 1.8 1.82 0.784 0.801 0.784 0.801 1.58 1.62 1.36 1.38 1.36 1.38 3.37 2.27v2c0.835 0.34 0.835 0.34 1.69 0.688 2.97 1.69 5.03 3.78 7.31 6.31v2h2c1.62 1.37 1.62 1.37 3 3v2h2c1.45 1.48 1.45 1.48 3.13 3.51 3.7 4.35 7.66 8.32 11.7 12.3 5.36 5.29 10.3 10.6 15 16.5 2.45 3.02 5.05 5.86 7.7 8.71 3.94 4.24 7.67 8.58 11.2 13.1 1.69 2.14 3.4 4.25 5.13 6.34 7.59 9.18 14.8 18.6 21.6 28.3 0.925 1.32 1.86 2.63 2.79 3.94 26.2 36.7 41.1 80.4 54.1 123 0.581 1.9 1.17 3.8 1.76 5.71 4.66 15 8.22 30.1 11.3 45.5 0.261 1.3 0.261 1.3 0.527 2.63 1.74 8.73 3.39 17.4 4.04 26.2-3.92-0.859-6.88-2.63-10.2-4.75-26.7-16.3-54.9-30.6-84.8-40.2-1.36-0.442-1.36-0.442-2.76-0.894-81.8-26-178-18.6-292 6.89-0.33 0.66-0.66 1.32-1 2h-2c-0.257 0.565-0.513 1.13-0.777 1.71-1.37 2.56-2.96 4.65-4.79 6.91-0.62 0.776-1.24 1.55-1.88 2.35-6.94 8.2-14.3 15.9-21.9 23.5-1.54 1.55-3.08 3.1-4.61 4.65-6.36 6.4-13 12.2-20.1 17.8-1.41 1.13-2.81 2.26-4.21 3.4-1.24 0.993-2.48 1.99-3.72 2.98-0.632 0.507-1.26 1.01-1.92 1.54-1.71 1.37-3.43 2.73-5.15 4.09-1.15 0.917-1.15 0.917-2.32 1.85-1.68 1.15-1.68 1.15-3.68 1.15 0.0105-0.7 0.0209-1.4 0.0317-2.12 0.0421-3.23 0.0678-6.46 0.0933-9.69 0.0168-1.1 0.0335-2.2 0.0508-3.33 0.0524-8.88-0.309-17.9-4.3-26-0.353-0.736-0.706-1.47-1.07-2.23-0.266-0.522-0.531-1.04-0.805-1.58-13.6 0.952-26.4 5.62-39 10.4-1.02 0.386-1.02 0.386-2.06 0.78-55.9 21.2-117 44.4-161 85.5-1.35 1.23-2.7 2.46-4.09 3.64-18.4 15.7-36.2 33.4-49.4 53.7-0.797 1.15-1.6 2.31-2.4 3.46-7.18 10.6-12.8 22.1-18.6 33.5-0.369 0.728-0.738 1.46-1.12 2.21-1.65 3.26-3.28 6.52-4.88 9.79-3-1-3-1-4.45-3.49-0.501-1.1-1-2.19-1.52-3.32-0.571-1.23-1.14-2.45-1.71-3.68-0.444-0.968-0.444-0.968-0.898-1.96-7.84-17-16.7-32.8-28.4-47.6-0.485-0.653-0.97-1.31-1.47-1.98-6.23-8.17-13.5-15.3-20.8-22.5-2.24-2.22-4.47-4.45-6.69-6.67-1.44-1.44-2.88-2.87-4.32-4.31-0.983-0.982-0.983-0.982-1.99-1.98-7.08-7.01-14.4-13.2-22.6-18.9-0.701-0.561-1.4-1.12-2.12-1.7v-2c-0.731-0.26-1.46-0.521-2.21-0.789-2.86-1.24-4.89-2.67-7.35-4.59-22.4-16.6-48.2-28.3-73.4-39.6-0.727-0.327-1.45-0.655-2.2-0.992-49.7-24.8-49.7-24.8-103-37-6.35 9.7-6.43 21.1-6.19 32.3 0.0203 1.84 0.0203 1.84 0.041 3.72 0.0349 2.99 0.0839 5.98 0.146 8.96-4.48-1.66-7.64-3.99-11.2-7.12-1.16-1-2.31-2-3.47-3-0.567-0.491-1.13-0.982-1.72-1.49-2.22-1.9-4.51-3.71-6.81-5.51-9.5-7.55-18.2-16-26.8-24.6-0.527-0.525-1.05-1.05-1.6-1.59-7.02-7-13.7-14.1-19.5-22.1-1.88-2.65-1.88-2.65-4.22-4.84-1.73-1.77-1.73-1.77-1.73-3.77-8.1-2.91-16.4-4.88-24.8-6.75-0.763-0.171-1.53-0.343-2.31-0.519-13.8-3.06-27.6-5.46-41.6-7.61-1.4-0.217-1.4-0.217-2.84-0.439-17.9-2.75-35.8-4.87-53.9-5.81-0.794-0.0417-1.59-0.0834-2.41-0.126-93.8-4.79-178 8.47-259 58.9-2.31 1.31-2.31 1.31-4.31 1.31 0.708-9.06 2.33-17.9 4.06-26.8 0.231-1.19 0.231-1.19 0.467-2.4 3.04-15.5 6.9-30.7 11.5-45.8 0.205-0.683 0.41-1.37 0.622-2.07 19.6-65.4 47.1-122 92.4-174 1.56-1.78 3.1-3.58 4.63-5.38 9.46-11.1 19.2-21.9 29.7-32.1 2.06-2.11 3.99-4.23 5.91-6.46 4.16-4.79 8.59-9.28 13.1-13.8 0.81-0.822 1.62-1.64 2.46-2.49 1.16-1.16 1.16-1.16 2.35-2.35 0.699-0.703 1.4-1.41 2.12-2.13 1.77-1.53 1.77-1.53 3.77-1.53v-2c1.36-1.34 1.36-1.34 3.31-2.94 3.58-3.03 6.9-6.22 10.2-9.56 3.61-3.64 7.25-7.17 11.2-10.5 1.93-1.65 3.84-3.32 5.75-5 6.63-5.83 13.3-11.4 20.4-16.6 3.78-2.84 7.44-5.81 11.1-8.81 5.9-4.83 11.9-9.55 17.9-14.2 2.63-2.01 5.24-4.04 7.85-6.08 5.42-4.22 11-8.26 16.6-12.2 0.968-0.679 0.968-0.679 1.96-1.37 7.71-5.29 15.4-8.52 24.4-11.1 1.03-0.296 2.07-0.593 3.13-0.898 29.9-8.4 60.1-14 90.9-17.5 0.929-0.107 1.86-0.214 2.81-0.325 18.8-2.14 37.3-3.09 56.2-2.99z"/>
<path transform="translate(365 453)" d="m0 0c1.2-0.00953 2.4-0.0191 3.63-0.0289 1.3 9.11e-4 2.6 0.00182 3.95 0.00276 1.35-0.00389 2.7-0.00822 4.04-0.013 2.83-0.00747 5.66-0.00717 8.49-0.00191 3.61 0.00577 7.23-0.0111 10.8-0.0343 2.79-0.0148 5.57-0.0156 8.36-0.0125 1.98-7.58e-4 3.95-0.0146 5.93-0.0287 6.46 0.0332 11.4 0.203 17 3.39 1.05 0.577 2.1 1.15 3.19 1.75 4.74 3.79 6.88 8.25 7.81 14.2 0.102 1.83 0.158 3.67 0.177 5.51 0.0193 1.62 0.0193 1.62 0.0389 3.27 0.00739 1.16 0.0148 2.31 0.0224 3.5 0.00807 1.2 0.0161 2.39 0.0245 3.63 0.0138 2.53 0.0245 5.06 0.0324 7.59 0.0172 3.86 0.0612 7.72 0.105 11.6 0.0101 2.46 0.0186 4.92 0.0254 7.38 0.0175 1.15 0.035 2.3 0.0531 3.49-0.0226 8.38-1.43 12.5-6.98 18.9-2.33 1.98-3.52 2.79-6.5 3.12 1.16 3.47 1.78 3.69 4.75 5.56 4.97 3.67 7.37 7.56 9.25 13.4 0.674 5.51 0.634 10.9 0.559 16.5-0.00426 1.58-0.00658 3.17-0.00706 4.75-0.00613 3.3-0.0287 6.6-0.0645 9.9-0.0454 4.22-0.06 8.43-0.0637 12.6-0.00444 3.26-0.0198 6.53-0.0389 9.79-0.00883 1.55-0.0156 3.11-0.0202 4.66-0.00911 2.17-0.0316 4.35-0.0579 6.52-0.016 1.85-0.016 1.85-0.0322 3.74-0.583 7.46-2.66 12.7-8.27 17.5-6.49 3.24-13.3 3.53-20.4 3.69-1.1 0.032-2.19 0.064-3.32 0.0969-3.75 0.0962-7.49 0.161-11.2 0.216-1.08 0.0164-1.08 0.0164-2.18 0.0332-4.61 0.0677-9.23 0.115-13.8 0.141-1.52 0.00881-3.03 0.0203-4.55 0.0346-2.14 0.0178-4.28 0.0218-6.41 0.0216-1.23 0.00411-2.47 0.00822-3.74 0.0125-3.22-0.239-5.34-0.983-8.28-2.24-0.0467-25-0.082-50-0.104-75-0.0103-11.6-0.0244-23.2-0.0473-34.8-0.0199-10.1-0.0328-20.2-0.0373-30.3-0.00261-5.36-0.00878-10.7-0.0233-16.1-0.0135-5.04-0.0178-10.1-0.0148-15.1-5.52e-4 -1.85-0.00456-3.71-0.0122-5.56-0.00988-2.52-0.00758-5.04-0.0021-7.56-0.00583-0.741-0.0117-1.48-0.0177-2.25 0.039-6.59 1.61-7.53 7.97-7.56z" fill="#CA2628"/>
<path transform="translate(1081 453)" d="m0 0c1.6 3.17e-4 3.2 0.0117 4.79 0.0317 1.26 0.00424 1.26 0.00424 2.55 0.00858 2.69 0.0112 5.38 0.0363 8.07 0.0617 1.82 0.01 3.64 0.0192 5.46 0.0273 4.47 0.0221 8.94 0.0566 13.4 0.0977 1.4 3.96 2.41 7.77 3.09 11.9 0.203 1.21 0.406 2.42 0.615 3.66 0.109 0.655 0.218 1.31 0.33 1.99 2.93 17.5 6.38 35 9.87 52.4 0.414 2.07 0.826 4.15 1.24 6.22 0.778 3.92 1.56 7.84 2.35 11.8 0.238 1.2 0.477 2.4 0.722 3.63 0.221 1.09 0.442 2.19 0.67 3.31 0.193 0.961 0.386 1.92 0.584 2.91 0.329 2.13 0.329 2.13 1.54 3.17-0.00653-1.05-0.0131-2.1-0.0198-3.19-0.04-9.73 0.0646-19.5 0.274-29.2 0.0368-1.73 0.0368-1.73 0.0743-3.5 0.103-4.79 0.209-9.58 0.32-14.4 0.0815-3.54 0.157-7.09 0.231-10.6 0.0406-1.63 0.0406-1.63 0.0819-3.3 0.0201-1 0.0402-2 0.0609-3.03 0.02-0.88 0.04-1.76 0.0606-2.67 0.0618-2.18 0.0618-2.18-1.08-4.12-0.396-4.16-0.515-8.33-0.688-12.5-0.0599-1.17-0.12-2.33-0.182-3.54-0.0471-1.11-0.0941-2.22-0.143-3.37-0.069-1.54-0.069-1.54-0.139-3.1 0.151-2.49 0.151-2.49 2.15-4.49 2.6-0.243 2.6-0.243 5.85-0.23 1.16 0.00193 2.32 0.00387 3.52 0.00586 1.22 0.0122 2.44 0.0245 3.69 0.0371 1.83 9.67e-4 1.83 9.67e-4 3.71 0.00195 9.09 0.0454 9.09 0.0454 10.2 1.19 1.43 9.68 1.14 19.6 1.13 29.3 0.00136 1.71 0.00314 3.43 0.00531 5.14 0.00453 4.62 0.0028 9.24-3.79e-4 13.9-0.00255 4.85-1.8e-4 9.7 0.00139 14.6 0.00181 8.14-5.67e-4 16.3-0.00534 24.4-0.00545 9.4-0.00367 18.8 0.00183 28.2 0.00454 8.09 0.00518 16.2 0.00256 24.3-0.00156 4.82-0.00177 9.65 0.00154 14.5 0.00289 4.53 8.77e-4 9.06-0.00489 13.6-0.00132 1.66-9.47e-4 3.32 0.00126 4.98 0.00274 2.27-7.08e-4 4.54-0.00568 6.81-5.66e-4 1.9-5.66e-4 1.9-0.00114 3.84-0.127 3.59-0.553 7.02-1.13 10.6-4.93 0.124-9.86 0.214-14.8 0.275-1.68 0.0251-3.35 0.0593-5.03 0.103-2.41 0.0606-4.82 0.089-7.23 0.111-1.13 0.0387-1.13 0.0387-2.27 0.0782-2.12 0.00114-2.12 0.00114-5.68-0.566-3.36-3.62-3.97-8.4-4.91-13.1-0.168-0.806-0.337-1.61-0.511-2.44-0.364-1.75-0.725-3.5-1.08-5.24-0.961-4.71-1.95-9.42-2.94-14.1-0.205-0.98-0.411-1.96-0.622-2.97-2.33-11.1-4.84-22.1-7.37-33.2-0.215-0.94-0.43-1.88-0.651-2.85-1.19-5.22-1.19-5.22-2.39-10.4-1.2-5.21-2.37-10.4-3.52-15.7-2.16 2.16-1.19 7.2-1.21 10.2-0.0148 1.45-0.0148 1.45-0.03 2.93-0.0317 3.21-0.0564 6.42-0.0811 9.63-0.0206 2.22-0.0416 4.44-0.063 6.65-0.0553 5.85-0.105 11.7-0.153 17.6-0.0501 5.97-0.106 11.9-0.161 17.9-0.108 11.7-0.209 23.4-0.307 35.1-4.29 0.196-8.58 0.38-12.9 0.562-1.22 0.0561-2.45 0.112-3.71 0.17-1.75 0.0725-1.75 0.0725-3.54 0.146-1.08 0.0471-2.16 0.0943-3.27 0.143-2.61-0.0217-2.61-0.0217-4.61-1.02-0.0467-25.1-0.082-50.3-0.104-75.4-0.0103-11.7-0.0244-23.3-0.0473-35-0.0199-10.2-0.0328-20.3-0.0373-30.5-0.00261-5.39-0.00878-10.8-0.0233-16.2-0.0135-5.06-0.0178-10.1-0.0148-15.2-5.52e-4 -1.86-0.00456-3.73-0.0122-5.59-0.00988-2.53-0.00758-5.07-0.0021-7.6-0.00583-0.745-0.0117-1.49-0.0177-2.26 0.0314-5.34 0.186-7.18 5.97-7.54z" fill="#CA2628"/>
<path transform="translate(985 453)" d="m0 0c1.23-0.016 2.46-0.032 3.73-0.0484 1.35-0.00638 2.71-0.0118 4.06-0.0163 1.39-0.00897 2.78-0.0181 4.16-0.0274 2.92-0.0165 5.83-0.0242 8.75-0.0271 3.72-0.00536 7.43-0.0429 11.1-0.0887 2.87-0.0299 5.74-0.037 8.61-0.038 1.37-0.00418 2.74-0.0165 4.11-0.0375 8.38-0.118 14.8 0.346 21.6 5.59 7.26 7.26 7.47 15.1 7.47 24.8 0.0114 1.85 0.0114 1.85 0.0231 3.74 0.0108 2.6 0.0137 5.21 0.00916 7.81-9.72e-4 3.97 0.0407 7.93 0.085 11.9 0.00521 2.54 0.0079 5.07 0.00781 7.61 0.0164 1.18 0.0328 2.36 0.0497 3.57-0.0611 7.33-1.15 12.6-5.64 18.5-2.2 1.9-2.2 1.9-4.25 2.94-2.97 1.42-2.97 1.42-4.75 4.06 0.681 0.206 1.36 0.413 2.06 0.625 4.54 2.12 8.81 5.02 11 9.62 1 2.99 1.19 5.35 1.22 8.49 0.0166 1.13 0.0333 2.27 0.0504 3.43 0.00841 1.22 0.0168 2.44 0.0255 3.7 0.026 1.95 0.052 3.9 0.0782 5.85 0.0344 2.74 0.0599 5.47 0.0855 8.21 0.145 32.6 0.145 32.6 2.46 65.1-4.34 0.218-8.68 0.414-13 0.592-1.48 0.0633-2.95 0.132-4.43 0.207-2.12 0.107-4.25 0.193-6.37 0.275-1.28 0.0576-2.56 0.115-3.87 0.175-3.58-0.27-4.92-0.587-7.3-3.25-1.2-4.32-1.18-8.69-1.23-13.1-0.0132-0.805-0.0265-1.61-0.0401-2.44-0.0285-1.74-0.0551-3.49-0.0801-5.23-0.0411-2.76-0.0903-5.51-0.142-8.27-0.148-7.84-0.292-15.7-0.403-23.5-0.0686-4.8-0.156-9.59-0.256-14.4-0.0346-1.83-0.062-3.66-0.0822-5.49-0.029-2.55-0.0821-5.1-0.141-7.66-0.00275-0.757-0.0055-1.51-0.00833-2.3-0.0984-3.27-0.176-5.11-2.45-7.57-2.82-1.33-5.08-1.23-8.16-1.02-2.26 4.49-2.27 8.73-2.23 13.6-2.92e-4 0.859-5.84e-4 1.72-8.85e-4 2.6 0.00139 2.83 0.0169 5.66 0.0326 8.49 0.00373 1.97 0.00658 3.93 0.00858 5.9 0.00763 5.17 0.0273 10.3 0.0494 15.5 0.0205 5.28 0.0296 10.6 0.0397 15.8 0.0214 10.3 0.0556 20.7 0.0977 31-4.68 0.0247-9.36 0.0428-14 0.0549-1.59 0.00504-3.19 0.0119-4.78 0.0205-2.29 0.0121-4.57 0.0178-6.86 0.0222-0.717 0.00516-1.43 0.0103-2.17 0.0156-1.72 1.96e-4 -3.43-0.0514-5.14-0.113-2.16-2.16-1.47-6.87-1.62-9.88-0.0516-0.81-0.103-1.62-0.156-2.45-0.227-4.23-0.21-8.28 0.271-12.5 0.708-7.42 0.627-14.8 0.592-22.3-0.00356-1.59-0.00665-3.19-0.00929-4.78-0.00651-3.41-0.016-6.82-0.0279-10.2-0.0184-5.39-0.0279-10.8-0.0359-16.2-0.0241-15.3-0.0602-30.6-0.105-46-0.0245-8.48-0.0419-17-0.0516-25.4-0.00655-5.36-0.0221-10.7-0.0443-16.1-0.0117-3.32-0.0151-6.65-0.0161-9.97-0.00215-1.55-0.00777-3.09-0.017-4.64-0.0121-2.1-0.012-4.21-0.00883-6.31-0.00314-1.18-0.00628-2.36-0.00952-3.57 0.476-5.38 3.47-5.01 8.11-5.05z" fill="#CA2628"/>
<path transform="translate(473 453)" d="m0 0c1.22 0.00333 1.22 0.00333 2.47 0.00673 1.38 1.13e-4 1.38 1.13e-4 2.79 2.29e-4 1 0.00516 2 0.0103 3.03 0.0156 1.02 0.00141 2.04 0.00283 3.09 0.00429 3.27 0.00562 6.54 0.0182 9.81 0.0309 2.21 0.00501 4.42 0.00958 6.63 0.0137 5.43 0.0111 10.9 0.0278 16.3 0.0488 1.49 2.98 1.56 6.15 1.91 9.43 0.131 1.18 0.131 1.18 0.265 2.39 0.194 1.75 0.387 3.5 0.578 5.25 0.546 4.98 1.11 9.96 1.66 14.9 0.123 1.1 0.246 2.19 0.372 3.32 0.996 8.85 2.03 17.7 3.07 26.6 0.081 0.686 0.162 1.37 0.246 2.08 0.418 3.54 0.836 7.07 1.26 10.6 3.24 27.4 6.4 54.8 9.47 82.2 0.139 1.24 0.279 2.49 0.422 3.77 0.258 2.31 0.516 4.62 0.772 6.92 0.462 4.13 0.935 8.24 1.56 12.3 0.43 3.24 0.519 6.33 0.482 9.6-0.00902 1.05-0.018 2.1-0.0273 3.18-0.0116 0.785-0.0232 1.57-0.0352 2.38-4.52 0.0247-9.04 0.0429-13.6 0.0549-1.54 0.00503-3.08 0.0119-4.62 0.0205-2.21 0.0121-4.42 0.0178-6.63 0.0222-0.69 0.00516-1.38 0.0103-2.09 0.0156-4.88 5.75e-4 -4.88 5.75e-4 -7.11-1.11-0.455-1.74-0.455-1.74-0.746-4.03-0.114-0.862-0.227-1.72-0.344-2.61-0.115-0.943-0.229-1.89-0.347-2.86-0.126-0.967-0.251-1.93-0.381-2.93-0.705-5.49-1.35-11-1.97-16.5-0.194-1.69-0.194-1.69-0.393-3.42-0.251-2.21-0.494-4.41-0.728-6.62-0.114-1.01-0.227-2.01-0.344-3.05-0.0961-0.892-0.192-1.78-0.291-2.7-0.357-2.55-0.357-2.55-2.45-5.29-0.552 0.164-1.1 0.327-1.67 0.496-2.59 0.562-4.93 0.601-7.58 0.566-0.892-0.00902-1.78-0.018-2.7-0.0273-1.01-0.0174-1.01-0.0174-2.05-0.0352-2.23 4.6-2.59 9.05-3.04 14.1-0.0836 0.869-0.167 1.74-0.253 2.63-0.265 2.77-0.52 5.54-0.774 8.3-0.259 2.77-0.521 5.54-0.785 8.3-0.163 1.72-0.324 3.44-0.481 5.16-0.366 3.9-0.793 7.71-1.67 11.5-3.93 0.168-7.87 0.328-11.8 0.482-2 0.0796-3.99 0.165-5.99 0.25-1.25 0.0483-2.51 0.0967-3.8 0.146-1.16 0.0471-2.31 0.0943-3.51 0.143-2.91-0.0217-2.91-0.0217-5.91-1.02 0.436-8.11 1.36-16.1 2.5-24.1 0.131-0.924 0.261-1.85 0.396-2.8 0.51-3.49 0.985-6.71 2.1-10.1 0.201-2.16 0.363-4.33 0.5-6.5 0.217-3.44 0.409-6.23 1.5-9.5v-3c0-3 0-3 1-6 0.181-1.89 0.321-3.79 0.438-5.69 0.378-5.34 0.905-10.6 1.56-15.9 0.125-1.03 0.125-1.03 0.252-2.08 0.368-2.9 0.819-5.51 1.75-8.29 0.182-2.04 0.321-4.08 0.438-6.12 0.37-5.65 0.895-11.3 1.56-16.9 0.0831-0.705 0.166-1.41 0.252-2.14 0.354-2.92 0.742-5.83 1.23-8.73 0.495-3.02 0.887-6.02 1.24-9.06 0.134-1.14 0.267-2.29 0.405-3.47 0.142-1.22 0.283-2.44 0.429-3.7 0.306-2.6 0.613-5.2 0.92-7.8 0.482-4.09 0.962-8.18 1.43-12.3 0.458-3.96 0.926-7.91 1.4-11.9 0.209-1.84 0.209-1.84 0.423-3.71 0.137-1.14 0.274-2.28 0.414-3.46 0.117-1 0.234-2 0.354-3.03 1.56-8.64 1.56-8.64 5.37-8.88z" fill="#CA2628"/>
<path transform="translate(734 453)" d="m0 0c0.795 0.00444 1.59 0.00888 2.41 0.0135 0.901 1.51e-4 1.8 3.02e-4 2.73 4.58e-4 0.974 0.0103 1.95 0.0206 2.95 0.0313 0.996 0.00283 1.99 0.00566 3.02 0.00858 3.19 0.0112 6.38 0.0363 9.57 0.0617 2.16 0.01 4.32 0.0192 6.48 0.0273 5.3 0.0221 10.6 0.0556 15.9 0.0977 1.96 5.13 2.66 10.1 3.28 15.5 0.113 0.939 0.225 1.88 0.341 2.85 0.37 3.11 0.732 6.21 1.09 9.32 0.259 2.19 0.518 4.37 0.777 6.56 0.544 4.6 1.08 9.19 1.62 13.8 0.678 5.81 1.36 11.6 2.05 17.4 2.41 20.3 4.81 40.6 6.85 61 0.782 7.77 1.66 15.5 2.59 23.3 0.197 1.64 0.197 1.64 0.397 3.31 0.529 4.39 1.06 8.79 1.6 13.2 0.401 3.29 0.797 6.59 1.19 9.88 0.122 0.983 0.244 1.97 0.369 2.98 0.11 0.927 0.221 1.85 0.335 2.81 0.0975 0.801 0.195 1.6 0.296 2.43 0.273 3.56 0.208 7.13 0.208 10.7h-33c-1.66-3.31-2.28-4.78-2.67-8.23-0.0967-0.824-0.193-1.65-0.293-2.5-0.0959-0.882-0.192-1.76-0.291-2.67-0.159-1.37-0.159-1.37-0.321-2.77-0.336-2.92-0.663-5.84-0.988-8.76-0.331-2.92-0.664-5.84-0.999-8.75-0.208-1.81-0.413-3.63-0.614-5.44-0.452-4-0.936-7.93-1.82-11.9-1.92-0.0542-3.83-0.0929-5.75-0.125-1.07-0.0232-2.13-0.0464-3.23-0.0703-3.06 0.198-4.49 0.524-7.02 2.2-3.47 8.2-2.92 18.9-3.68 27.7-0.626 7.25-1.24 14.3-3.32 21.3-4.44 0.225-8.87 0.427-13.3 0.625-1.26 0.0645-2.53 0.129-3.83 0.195-1.21 0.0516-2.42 0.103-3.66 0.156-1.12 0.0524-2.23 0.105-3.38 0.159-2.82-0.135-2.82-0.135-5.82-2.14 0.598-11.8 1.96-23.4 3.5-35.1 0.228-1.76 0.456-3.52 0.684-5.28 0.22-1.69 0.44-3.38 0.66-5.07 0.152-1.16 0.152-1.16 0.306-2.35 0.411-3.11 0.844-6.2 1.36-9.3 0.584-3.54 1.01-7.08 1.42-10.6 0.174-1.47 0.349-2.94 0.523-4.41 0.271-2.3 0.541-4.6 0.81-6.89 0.261-2.23 0.526-4.46 0.792-6.7 0.0792-0.688 0.158-1.38 0.24-2.08 0.346-2.89 0.774-5.45 1.7-8.22 0.182-2.04 0.322-4.08 0.438-6.12 0.551-8.34 1.53-16.6 2.56-24.9 0.196-1.6 0.391-3.19 0.587-4.79 0.407-3.32 0.817-6.63 1.23-9.95 0.524-4.23 1.04-8.45 1.56-12.7 0.401-3.28 0.806-6.57 1.21-9.85 0.192-1.56 0.383-3.12 0.573-4.68 3.01-24.7 3.01-24.7 7.8-25.3z" fill="#C92527"/>
<path transform="translate(1201 453)" d="m0 0c0.901 3.02e-4 1.8 6.04e-4 2.73 9.16e-4 0.969 0.0206 1.94 0.0413 2.94 0.0626 1.49 0.00849 1.49 0.00849 3.01 0.0172 3.18 0.0224 6.36 0.0726 9.54 0.123 2.15 0.0201 4.31 0.0383 6.46 0.0547 5.28 0.0441 10.6 0.111 15.8 0.195 2.14 4.52 2.65 8.88 3.21 13.8 0.104 0.876 0.209 1.75 0.316 2.65 0.343 2.9 0.677 5.79 1.01 8.69 0.238 2.03 0.477 4.06 0.717 6.09 0.502 4.26 0.999 8.53 1.49 12.8 0.626 5.41 1.26 10.8 1.9 16.2 0.613 5.21 1.22 10.4 1.83 15.6 0.113 0.969 0.227 1.94 0.344 2.94 1.25 10.7 2.42 21.3 3.47 32 0.718 7.28 1.54 14.5 2.41 21.8 0.263 2.2 0.523 4.41 0.782 6.61 0.735 6.25 1.47 12.5 2.22 18.8 0.46 3.87 0.916 7.74 1.37 11.6 0.171 1.46 0.344 2.91 0.519 4.37 0.842 7.02 1.66 13.9 1.42 21-4.52 0.167-9.04 0.328-13.6 0.482-1.54 0.0534-3.08 0.109-4.62 0.166-2.21 0.0819-4.42 0.157-6.63 0.231-1.03 0.0406-1.03 0.0406-2.09 0.0819-4.88 0.153-4.88 0.153-7.11-0.961-0.455-1.72-0.455-1.72-0.746-4-0.114-0.857-0.227-1.71-0.344-2.6-0.115-0.939-0.229-1.88-0.347-2.84l-0.378-2.92c-1.16-9.1-2.19-18.2-3.18-27.3-0.117-1.06-0.233-2.11-0.354-3.2-0.101-0.939-0.203-1.88-0.307-2.84-0.226-2.29-0.226-2.29-1.34-4.26h-15c-1.46 3.66-2.26 5.69-2.63 9.36-0.0838 0.805-0.168 1.61-0.254 2.44-0.0786 0.828-0.157 1.66-0.238 2.51-0.0864 0.817-0.173 1.63-0.262 2.47-0.393 3.92-0.653 7.76-0.605 11.7-0.00781 3.52-0.00781 3.52-1.01 5.52-0.392 2.71-0.746 5.41-1.06 8.12-0.0909 0.754-0.182 1.51-0.275 2.29-0.224 1.86-0.443 3.73-0.662 5.59-4.25 0.0247-8.51 0.0428-12.8 0.0549-1.45 0.00504-2.9 0.0119-4.34 0.0205-2.08 0.0121-4.16 0.0178-6.23 0.0222-1.25 0.00524-2.5 0.0105-3.79 0.0159-2.87-0.114-2.87-0.114-3.87-1.11 0.0642-1.63 0.201-3.25 0.375-4.88 0.0902-0.884 0.18-1.77 0.273-2.68 0.352-2.45 0.352-2.45 1.35-5.45v-2.81c0-3.21 0.462-6.02 1-9.19 0.157-1.64 0.301-3.29 0.438-4.94 0.408-4.7 0.948-9.38 1.56-14.1 0.165-1.26 0.33-2.52 0.5-3.81 0.5-3.19 0.5-3.19 1.5-6.19 0.188-2.09 0.334-4.19 0.455-6.28 0.492-7.44 1.33-14.8 2.26-22.2 0.267-2.15 0.533-4.31 0.799-6.46 0.191-1.54 0.381-3.09 0.573-4.63 0.875-7.07 1.72-14.2 2.56-21.2 0.933-7.84 1.88-15.7 2.83-23.5 0.613-5.06 1.22-10.1 1.82-15.2 0.59-4.99 1.19-9.98 1.8-15 0.228-1.88 0.452-3.76 0.671-5.64 0.304-2.6 0.623-5.2 0.945-7.8 0.0858-0.766 0.172-1.53 0.26-2.32 0.777-6.04 1.8-10.3 8.5-10.2z" fill="#CA2628"/>
<path transform="translate(654 452)" d="m0 0c3.06 0.0397 6.12 0.0207 9.18-0.00513 1.97 0.00756 3.95 0.0185 5.92 0.0332 0.901-0.00698 1.8-0.014 2.73-0.0212 6.67 0.146 12.2 1.82 17.7 5.72 0.495 1.49 0.495 1.49 1 3h2c6.03 9.18 4.14 22.6 4.1 33.2-0.00141 1.29-0.00283 2.58-0.00429 3.91-0.00377 3.38-0.0135 6.77-0.0247 10.2-0.0103 3.47-0.0148 6.95-0.0198 10.4-0.0106 6.78-0.0276 13.6-0.0488 20.3-4.04-1.08-7.73-2.16-11.4-4.21-1.14-0.633-1.14-0.633-2.3-1.28-0.768-0.438-1.54-0.875-2.33-1.33-0.768-0.426-1.54-0.852-2.33-1.29-2.25-1.27-4.48-2.53-6.67-3.9-0.598-0.324-1.2-0.647-1.81-0.981-2-1.2-3.59-2.31-5.19-4.02-0.609-3.17-0.764-5.27-0.578-8.41 0.017-0.802 0.034-1.6 0.0516-2.43 0.0589-2.56 0.165-5.11 0.277-7.66 0.0905-2.55 0.171-5.11 0.234-7.66 0.0412-1.59 0.0993-3.17 0.177-4.76 0.145-4.6-0.359-7.38-3.16-11.1-2.97 0.33-5.94 0.66-9 1-0.0467 17.8-0.082 35.6-0.104 53.4-0.0103 8.27-0.0244 16.5-0.0473 24.8-0.0199 7.21-0.0328 14.4-0.0373 21.6-0.00261 3.82-0.00876 7.63-0.0233 11.5-0.0136 3.59-0.0178 7.18-0.0148 10.8-8.15e-4 1.95-0.0116 3.9-0.0226 5.85 0.00275 1.16 0.0055 2.31 0.00833 3.51-0.00277 1.51-0.00277 1.51-0.00559 3.05 0.0717 2.76 0.0717 2.76 2.25 5.51 2.19 0.58 2.19 0.58 4.62 0.688 1.23 0.0986 1.23 0.0986 2.48 0.199 0.94 0.0561 0.94 0.0561 1.9 0.113 0.919-6.16 1.09-12.1 0.992-18.3-0.0175-1.97-0.0344-3.93-0.0508-5.9-0.0311-3.07-0.0668-6.14-0.113-9.22-0.0422-2.98-0.0657-5.97-0.0864-8.95-0.0186-0.922-0.0372-1.84-0.0564-2.79-0.00518-1.28-0.00518-1.28-0.0105-2.59-0.00968-0.751-0.0194-1.5-0.0293-2.28 0.454-2.54 1.39-3.37 3.35-4.98 1.43-0.9 2.9-1.75 4.39-2.56 0.857-0.469 1.71-0.937 2.6-1.42 0.893-0.481 1.79-0.963 2.71-1.46 0.873-0.478 1.75-0.955 2.65-1.45 5.17-2.82 10.4-5.51 15.7-8.12 0.944 3.46 1.07 6.47 1 10.1-0.0672 3.4-0.0797 5.7 1 8.94-0.0941 1.61-0.254 3.21-0.445 4.81-0.553 5.88-0.607 11.7-0.547 17.6 0.00796 0.937 0.0159 1.87 0.0241 2.84 0.0361 3.91 0.078 7.83 0.139 11.7 0.427 28.8 0.427 28.8-7.17 37-10.7 6.2-25.1 4.19-37 4-0.86-0.00725-1.72-0.0145-2.61-0.022-20.4-0.23-20.4-0.23-28-7.55-6.6-8.11-5.66-19.2-5.63-29.1-0.00271-1.46-0.00628-2.93-0.0106-4.39-0.00907-3.95-0.0056-7.9 7.58e-4 -11.9 0.00509-4.15 3.61e-4 -8.3-0.00277-12.4-0.00363-6.97 0.00114-13.9 0.0107-20.9 0.0109-8.03 0.00736-16.1-0.00365-24.1-0.0091-6.92-0.0103-13.8-0.00512-20.8 0.00311-4.12 0.00357-8.25-0.00307-12.4-0.00581-3.88-0.00171-7.76 0.00979-11.6 0.00263-1.42 0.00192-2.83-0.00253-4.25-0.0606-21.3-0.0606-21.3 6.43-28.9 9.22-9.11 19-8.71 31.3-8.54z" fill="#CA2628"/>
<path transform="translate(803 453)" d="m0 0c1.29 0.0105 2.58 0.0209 3.9 0.0317 1.03 0.00424 1.03 0.00424 2.08 0.00858 2.19 0.0112 4.38 0.0363 6.57 0.0617 1.48 0.01 2.97 0.0192 4.45 0.0273 3.64 0.0221 7.28 0.0566 10.9 0.0977 1.95 6.88 2.77 13.7 3.52 20.8 0.205 1.88 0.205 1.88 0.413 3.8 0.293 2.69 0.584 5.39 0.871 8.08 0.681 6.37 1.38 12.7 2.08 19.1 0.238 2.16 0.475 4.33 0.712 6.49 1.4 12.8 2.83 25.6 4.33 38.3 0.255 2.18 0.507 4.37 0.755 6.56 0.342 3.01 0.696 6.02 1.05 9.03 0.0987 0.889 0.197 1.78 0.299 2.69 0.251 2.05 0.596 4.09 0.963 6.13 0.99 0.495 0.99 0.495 2 1 0.0374-0.648 0.0748-1.3 0.113-1.96 0.88-13.1 2.41-26.3 4.38-39.3 0.617-4.54 1.02-9.08 1.42-13.6 1.01-11.3 2.11-22.6 3.27-34 0.218-2.14 0.433-4.27 0.646-6.41 0.313-3.15 0.635-6.29 0.958-9.44 0.0928-0.95 0.186-1.9 0.281-2.88 1.23-11.7 1.23-11.7 3.94-14.4 1.99-0.0998 3.98-0.131 5.97-0.133 1.21-0.00129 2.42-0.00258 3.67-0.00391 1.27 0.00387 2.55 0.00773 3.86 0.0117 1.91-0.0058 1.91-0.0058 3.86-0.0117 1.82 0.00193 1.82 0.00193 3.67 0.00391 1.12 0.00113 2.24 0.00226 3.39 0.00342 2.58 0.129 2.58 0.129 3.58 1.13 0.447 5.97-0.206 11.9-0.961 17.8-0.222 1.82-0.443 3.65-0.665 5.47-0.121 0.981-0.242 1.96-0.367 2.97-3.68 29.9-6.9 59.8-10.2 89.7-0.42 3.85-0.84 7.69-1.26 11.5-0.203 1.86-0.406 3.72-0.609 5.58-1.32 12.1-2.66 24.2-4.15 36.3-0.451 3.77-0.825 7.36-0.771 11.2-0.067 4.63-1.04 8.95-2.05 13.5-6.37 0.168-12.7 0.328-19.1 0.482-2.17 0.0535-4.34 0.109-6.51 0.166-3.11 0.0818-6.23 0.157-9.34 0.231-1.46 0.0406-1.46 0.0406-2.95 0.0819-0.901 0.0201-1.8 0.0402-2.73 0.0609-1.19 0.03-1.19 0.03-2.41 0.0606-1.95-0.0823-1.95-0.0823-3.95-1.08-0.61-2.37-1.09-4.66-1.5-7.06-0.128-0.718-0.256-1.44-0.388-2.18-1.2-6.89-2.08-13.8-2.88-20.8-0.33-2.89-0.672-5.78-1.01-8.67-0.171-1.45-0.342-2.9-0.512-4.35-0.667-5.67-1.39-11.3-2.15-17-1.44-10.8-2.75-21.7-4.06-32.5-1.94-16-1.94-16-4-32-1.67-12.5-3.18-25.1-4.7-37.7-0.103-0.846-0.206-1.69-0.311-2.56-0.202-1.67-0.403-3.34-0.602-5.01-0.479-4-0.986-7.99-1.55-12-0.103-0.741-0.205-1.48-0.311-2.25-0.28-2.01-0.572-4.01-0.865-6.02-0.0516-0.987-0.103-1.97-0.156-2.99 2-2 2-2 5.07-2.23z" fill="#CA2628"/>
<path transform="translate(906 453)" d="m0 0c1.59 0.00666 1.59 0.00666 3.22 0.0135 1.2 1.51e-4 2.4 3.02e-4 3.64 4.58e-4 1.3 0.0103 2.6 0.0206 3.95 0.0313 1.34 0.00373 2.68 0.00658 4.03 0.00858 3.53 0.00764 7.07 0.0273 10.6 0.0494 3.61 0.0205 7.21 0.0296 10.8 0.0397 7.08 0.0215 14.2 0.0556 21.2 0.0977 1.25 2.5 1.11 4.21 1.1 7.01-0.00322 0.986-0.00645 1.97-0.00977 2.99-0.0126 1.55-0.0126 1.55-0.0254 3.13-0.00451 1.04-0.00902 2.08-0.0137 3.15-0.0118 2.57-0.0283 5.15-0.0488 7.72-0.813 0.0251-1.63 0.0501-2.46 0.0759-3.66 0.116-7.32 0.238-11 0.362-1.28 0.0393-2.56 0.0786-3.88 0.119-1.21 0.0419-2.43 0.0838-3.68 0.127-1.13 0.0367-2.25 0.0733-3.41 0.111-2.52-0.0825-2.52-0.0825-3.59 1.21-0.0984 1.53-0.128 3.06-0.129 4.6-0.00473 1.47-0.00473 1.47-0.00955 2.96 0.00202 1.06 0.00405 2.13 0.00613 3.22-9.57e-4 1.08-0.00191 2.17-0.0029 3.28-6.82e-4 2.3 0.00117 4.59 0.00534 6.89 0.00535 3.53 5.56e-5 7.06-0.00635 10.6 6.61e-4 2.23 0.00194 4.45 0.00391 6.68-0.00202 1.06-0.00405 2.13-0.00613 3.22 0.00315 0.978 0.0063 1.96 0.00955 2.96 7.96e-4 0.865 0.00159 1.73 0.00241 2.62-0.091 1.98-0.091 1.98 1.13 2.97 1.69 0.145 3.39 0.227 5.09 0.281 1.54 0.0561 1.54 0.0561 3.12 0.113 1.08 0.0348 2.17 0.0696 3.29 0.105 2.14 0.0686 4.27 0.141 6.41 0.219 0.952 0.0303 1.9 0.0606 2.88 0.0918 2.21 0.189 2.21 0.189 3.21 1.19 0.087 1.63 0.107 3.27 0.0977 4.91-0.00322 0.989-0.00645 1.98-0.00977 3-0.0126 1.56-0.0126 1.56-0.0254 3.15-0.00451 1.04-0.00902 2.09-0.0137 3.17-0.0118 2.59-0.0283 5.18-0.0488 7.77-0.722 0.0251-1.44 0.0501-2.19 0.0759-3.25 0.116-6.5 0.238-9.75 0.362-1.14 0.0393-2.27 0.0786-3.44 0.119-1.08 0.0419-2.16 0.0838-3.27 0.127-1 0.0367-2 0.0733-3.03 0.111-2.28-0.048-2.28-0.048-3.32 1.21-0.0942 2.09-0.117 4.18-0.114 6.26-1.46e-4 0.654-2.92e-4 1.31-4.43e-4 1.98 6.99e-4 2.17 0.00849 4.34 0.0163 6.51 0.00186 1.5 0.00329 3 0.00429 4.5 0.00383 3.96 0.0137 7.91 0.0247 11.9 0.0102 4.04 0.0148 8.07 0.0198 12.1 0.0107 7.92 0.0278 15.8 0.0488 23.8 0.832 0.0198 1.66 0.0396 2.52 0.0601 3.09 0.0781 6.18 0.165 9.28 0.257 1.99 0.0571 3.99 0.104 5.99 0.151 1.25 0.0387 2.51 0.0773 3.8 0.117 1.16 0.0314 2.31 0.0628 3.51 0.0952 2.91 0.319 2.91 0.319 5.91 2.32 0.341 2.34 0.341 2.34 0.293 5.23-0.00967 1.03-0.0193 2.06-0.0293 3.12-0.0251 1.08-0.0503 2.16-0.0762 3.27-0.0203 1.63-0.0203 1.63-0.041 3.3-0.0354 2.69-0.0848 5.39-0.146 8.08-8.01 0.177-16 0.343-24 0.495-3.72 0.0708-7.44 0.145-11.2 0.229-3.59 0.0804-7.18 0.151-10.8 0.214-1.37 0.0259-2.74 0.0554-4.11 0.0887-1.92 0.046-3.84 0.0778-5.76 0.109-1.09 0.0222-2.19 0.0444-3.31 0.0673-2.88-0.206-4.34-0.854-6.83-2.2-0.0467-25-0.082-50-0.104-75-0.0103-11.6-0.0244-23.2-0.0473-34.8-0.0199-10.1-0.0328-20.2-0.0373-30.3-0.00261-5.36-0.00878-10.7-0.0233-16.1-0.0135-5.04-0.0178-10.1-0.0148-15.1-5.52e-4 -1.85-0.00456-3.71-0.0122-5.56-0.00988-2.52-0.00758-5.04-0.0021-7.56-0.00583-0.741-0.0117-1.48-0.0177-2.25 0.0419-7.07 0.0419-7.07 4.78-7.52z" fill="#CA2628"/>
<path transform="translate(545 453)" d="m0 0c1.8 0.00214 1.8 0.00214 3.64 0.00432 0.662-0.0019 1.32-0.0038 2.01-0.00575 2.19-0.00371 4.38 7e-3 6.58 0.0182 1.52 0.00119 3.04 0.00164 4.56 0.00139 3.19 0.00157 6.37 0.00986 9.56 0.0233 4.09 0.017 8.18 0.0208 12.3 0.0201 3.14 2.71e-4 6.27 0.00575 9.41 0.013 1.51 0.00319 3.02 0.00516 4.53 0.00589 2.1 0.00216 4.21 0.0109 6.31 0.0216 1.8 0.00572 1.8 0.00572 3.64 0.0116 2.69 0.134 2.69 0.134 3.69 1.13 0.0874 1.85 0.107 3.71 0.0977 5.57-0.00483 1.69-0.00483 1.69-0.00977 3.41-0.0126 1.78-0.0126 1.78-0.0254 3.59-0.00451 1.19-0.00902 2.38-0.0137 3.6-0.0118 2.95-0.0283 5.89-0.0488 8.84-1.14 0.0606-2.29 0.121-3.46 0.184-1.49 0.0844-2.98 0.169-4.47 0.254-0.755 0.0393-1.51 0.0786-2.29 0.119-3.69-0.116-3.69-0.116-6.78 1.44-0.109 2.15-0.147 4.31-0.158 6.46-0.00494 0.683-0.00988 1.37-0.015 2.07-0.0154 2.3-0.0238 4.61-0.0321 6.91-0.00957 1.65-0.0196 3.29-0.03 4.94-0.0271 4.48-0.0481 8.96-0.068 13.4-0.0218 4.68-0.0492 9.36-0.0761 14-0.05 8.86-0.0949 17.7-0.138 26.6-0.0493 10.1-0.104 20.2-0.16 30.3-0.114 20.8-0.221 41.5-0.323 62.3-4.5 0.192-9 0.371-13.5 0.537-1.53 0.0584-3.06 0.121-4.59 0.187-2.2 0.0942-4.4 0.175-6.61 0.253-1.03 0.0483-1.03 0.0483-2.07 0.0976-3.69 0.116-5.05 0.0411-8.22-2.07-0.292-2.44-0.389-4.63-0.356-7.08-0.00204-0.729-0.00409-1.46-0.0062-2.21-0.00301-2.41 0.0155-4.83 0.0345-7.24 0.00306-1.67 0.00493-3.35 0.00568-5.02 0.00461-3.51 0.019-7.02 0.0412-10.5 0.0283-4.51 0.0392-9.01 0.0437-13.5 0.00415-3.46 0.014-6.91 0.0259-10.4 0.00571-1.66 0.0105-3.32 0.0143-4.99 0.00685-2.32 0.0205-4.64 0.0363-6.96 0.00168-1.04 0.00168-1.04 0.00339-2.09 0.0431-4.76 0.0431-4.76 1.16-6.99 0.0965-2 0.13-4 0.125-6 0.00258-1.07 0.00516-2.14 0.00781-3.25 0.0544-2.71 0.0544-2.71-1.13-4.75-0.122-2.47-0.186-4.92-0.205-7.39-0.0099-0.761-0.0198-1.52-0.03-2.31-0.0316-2.52-0.0564-5.04-0.0811-7.56-0.0206-1.75-0.0416-3.49-0.063-5.24-0.0552-4.6-0.105-9.2-0.153-13.8-0.0502-4.69-0.106-9.38-0.161-14.1-0.108-9.21-0.209-18.4-0.307-27.6-1.14-0.0606-2.29-0.121-3.46-0.184-1.49-0.0844-2.98-0.169-4.47-0.254-0.755-0.0393-1.51-0.0786-2.29-0.119-5.66-0.33-5.66-0.33-6.78-1.44-0.251-3.47-0.185-6.96-0.188-10.4-0.0122-0.98-0.0245-1.96-0.0371-2.97-0.0029-1.4-0.0029-1.4-0.00586-2.84-0.00411-0.863-0.00822-1.73-0.0125-2.61 0.399-3.51 1.66-4.09 5.06-4.39z" fill="#CA2628"/>
<path transform="translate(397 554)" d="m0 0c3.33 0.385 4.92 0.968 7.21 3.43 2.49 4.67 1.67 10.6 1.6 15.7-0.00425 1.36-0.00658 2.71-0.00706 4.07-0.00615 2.83-0.0288 5.67-0.0645 8.5-0.0454 3.64-0.06 7.27-0.0637 10.9-0.00442 2.8-0.0197 5.59-0.0389 8.39-0.0132 1.99-0.0214 3.99-0.0296 5.98-0.016 1.2-0.032 2.41-0.0484 3.65-0.0106 1.06-0.0213 2.13-0.0322 3.22-0.274 2.52-0.274 2.52-2.27 4.52-2.35 0.23-2.35 0.23-5.06 0.188-1.35-0.00967-1.35-0.00967-2.72-0.0195-2.21-0.168-2.21-0.168-3.21-1.17-0.161-2.38-0.26-4.74-0.316-7.13-0.0209-0.733-0.0418-1.47-0.0634-2.22-0.0666-2.4-0.125-4.81-0.183-7.21-0.0205-0.813-0.041-1.63-0.0622-2.46-0.258-10.3-0.49-20.6-0.563-30.8-0.013-0.953-0.0259-1.91-0.0393-2.89-0.00661-4.81 0.283-8.74 2.23-13.2 1-1 1-1 3.75-1.38z"/>
<path transform="translate(399 479)" d="m0 0c3.19 0.709 4.13 1.81 6.07 4.46 0.576 3.31 0.489 6.59 0.426 9.95-0.00329 0.966-0.00658 1.93-0.00996 2.93-0.0104 2.04-0.0303 4.08-0.0591 6.12-0.0441 3.13-0.0614 6.26-0.0735 9.39-0.0134 1.98-0.0283 3.96-0.0449 5.94-0.00739 0.94-0.0148 1.88-0.0224 2.85-0.0128 0.868-0.0257 1.74-0.0389 2.63-0.0148 1.15-0.0148 1.15-0.0298 2.32-0.147 1.88-0.147 1.88-1.15 3.88-1.81 0.0269-3.62 0.0463-5.44 0.0625-1.01 0.0116-2.02 0.0232-3.06 0.0352-2.5-0.0977-2.5-0.0977-3.5-1.1-1.36-9.15-1.19-18.5-1.19-27.7-0.00223-2.41-0.0206-4.81-0.0393-7.22-0.00293-1.53-0.00492-3.07-0.00586-4.6-0.00719-0.718-0.0144-1.44-0.0218-2.17 0.031-6.67 1.63-7.44 8.18-7.72z"/>
<path transform="translate(1016 479)" d="m0 0c3.69 0.312 3.69 0.312 5.89 1.69 2.8 4.08 2.29 8.02 2.18 12.9-0.00566 0.993-0.0113 1.99-0.0172 3.01-0.0224 3.17-0.0726 6.34-0.123 9.51-0.0201 2.15-0.0383 4.3-0.0547 6.45-0.0441 5.27-0.111 10.5-0.195 15.8-4.46 2.01-7.17 2.02-12 1-2.19-2.19-1.31-7.28-1.39-10.3-0.0255-0.941-0.051-1.88-0.0773-2.85-0.0521-2-0.102-3.99-0.148-5.99-0.0743-3.05-0.165-6.1-0.257-9.15-0.0485-1.94-0.0961-3.88-0.143-5.82-0.0291-0.912-0.0581-1.82-0.0881-2.76-0.0886-4.48-0.108-8.05 2.1-12.1 1-1 1-1 4.31-1.31z"/>
<path transform="translate(490,513)" d="m0 0h2c0.116 1.14 0.232 2.28 0.351 3.45 0.433 4.26 0.868 8.51 1.3 12.8 0.187 1.84 0.375 3.67 0.562 5.51 0.27 2.65 0.541 5.3 0.812 7.95 0.0823 0.812 0.165 1.62 0.249 2.46 0.385 3.76 0.797 7.5 1.28 11.2 0.382 3.09 0.551 6 0.508 9.1-0.00902 0.856-0.018 1.71-0.0273 2.59-0.0116 0.629-0.0232 1.26-0.0352 1.91-2.15 0.0269-4.29 0.0463-6.44 0.0625-1.19 0.0116-2.39 0.0232-3.62 0.0352-2.94-0.0977-2.94-0.0977-3.94-1.1 0.191-10.7 1.46-21.3 2.67-31.9 0.267-2.34 0.522-4.68 0.777-7.01 0.171-1.51 0.342-3.01 0.514-4.52 0.074-0.69 0.148-1.38 0.224-2.09 0.448-3.79 1.21-7.02 2.81-10.5z"/>
<path transform="translate(1215,513)" d="m0 0h2c1.17 2.34 1.31 4.13 1.57 6.74 0.1 0.985 0.2 1.97 0.303 2.98 0.104 1.07 0.208 2.14 0.316 3.24 0.164 1.64 0.164 1.64 0.332 3.32 0.231 2.32 0.461 4.64 0.688 6.96 0.348 3.55 0.704 7.1 1.06 10.6 0.224 2.25 0.447 4.51 0.67 6.76 0.106 1.06 0.212 2.12 0.322 3.22 0.0969 0.994 0.194 1.99 0.294 3.01 0.0858 0.871 0.172 1.74 0.26 2.64 0.184 2.51 0.215 4.98 0.183 7.49-2.15 0.0269-4.29 0.0463-6.44 0.0625-1.19 0.0116-2.39 0.0232-3.62 0.0352-2.94-0.0977-2.94-0.0977-3.94-1.1-0.209-6.4 0.272-12.5 1.06-18.9 0.109-0.908 0.217-1.82 0.329-2.75 0.229-1.9 0.46-3.81 0.694-5.71 0.357-2.91 0.706-5.81 1.05-8.72 0.224-1.86 0.449-3.71 0.674-5.57 0.104-0.865 0.208-1.73 0.316-2.62 0.487-3.95 1.01-7.85 1.88-11.7z"/>
<path transform="translate(752,515)" d="m0 0c1.08 4.06 1.51 8.14 1.94 12.3 0.085 0.804 0.17 1.61 0.258 2.44 0.271 2.56 0.538 5.13 0.805 7.69 0.267 2.56 0.534 5.12 0.805 7.68 0.168 1.59 0.334 3.18 0.498 4.77 0.396 3.75 0.918 7.41 1.7 11.1 0.0402 1.4 0.0432 2.79 0 4.19-0.284 3.62-0.284 3.62 1 5.81-1.94 0.0541-3.87 0.0928-5.81 0.125-1.08 0.0232-2.16 0.0464-3.27 0.0703-2.92-0.195-2.92-0.195-5.92-2.2-0.328-1.83-0.328-1.83-0.249-4.03 0.0275-0.807 0.055-1.61 0.0833-2.45 0.264-4.01 0.664-7.99 1.15-12 0.156-1.29 0.156-1.29 0.315-2.62 0.22-1.81 0.443-3.62 0.668-5.43 0.342-2.76 0.665-5.52 0.988-8.29 0.217-1.77 0.435-3.53 0.654-5.3 0.0939-0.821 0.188-1.64 0.285-2.49 0.581-4.49 1.37-7.68 4.1-11.4z" fill="#000001"/>
</svg>
