<?xml version="1.0" encoding="utf-8"?>
<!DOCTYPE svg PUBLIC "-//W3C//DTD SVG 1.0//EN" "http://www.w3.org/TR/2001/REC-SVG-20010904/DTD/svg10.dtd">
<svg version="1.0" xmlns="http://www.w3.org/2000/svg" width="571px" height="430px" viewBox="0 0 571 430" preserveAspectRatio="xMidYMid meet">
 <g fill="#cb2523">
  <path d="M281.6 319.6 c-7.4 -14.6 -21.9 -30 -38 -40.4 -11.6 -7.5 -52.9 -25.2 -58.9 -25.2 -2 0 -2.8 2.3 -3.6 9.8 l-0.6 6.2 -8 -6.9 c-4.4 -3.7 -10.4 -9.7 -13.3 -13.3 -5.1 -6.3 -5.5 -6.5 -12.5 -8.1 -18.7 -4.3 -26.7 -5.1 -51.2 -5.1 -34.1 0 -46 2.5 -69.2 15 -12.1 6.5 -11.7 6.9 -7.9 -9.1 6.2 -25.3 15.7 -47.7 26.3 -61.7 18.7 -24.7 52.1 -56.5 71.2 -67.7 10.7 -6.3 44 -12.3 63.2 -11.2 2.6 0.1 2.6 0.1 -1.8 4.8 -4.2 4.6 -4.4 5 -3.8 9.3 1.2 8.4 4.2 10.7 25.2 19.7 18.4 7.9 30.8 11.3 41.2 11.3 4.7 0 10.3 -0.3 12.4 -0.6 l3.7 -0.7 0 -5.7 c0 -6.1 0.3 -6.5 8 -12.2 l3.5 -2.5 -0.3 5.2 c-0.3 4.4 0 5.6 2.3 8.4 4.1 4.8 7.4 6.1 16.1 6.1 12.2 0 17.4 -3.8 18.4 -13.7 l0.5 -5.3 5 3.8 c4.9 3.7 5 3.8 5.3 9.9 l0.3 6.1 3.7 0.6 c2 0.3 7.6 0.6 12.3 0.6 10.4 0 22.8 -3.4 41.2 -11.3 21 -9 24 -11.3 25.2 -19.7 0.6 -4.3 0.4 -4.7 -3.8 -9.3 -4.4 -4.7 -4.4 -4.7 -1.8 -4.8 19.9 -1.1 52.4 4.8 63.7 11.5 18.8 11.2 52.3 43.1 70.7 67.4 10.6 14 20.1 36.3 26.3 61.7 3.8 16 4.2 15.6 -7.8 9.1 -23.3 -12.5 -35.2 -15 -69.3 -15 -24.5 0 -32.5 0.8 -51.3 5.1 -6.2 1.4 -7.6 2.2 -9.9 5.2 -3.5 4.6 -14.6 15.7 -20 20 l-4.3 3.3 0 -5 c0 -6.1 -1.7 -11.2 -3.7 -11.2 -6 0 -47.3 17.7 -58.9 25.2 -16 10.3 -30.6 25.9 -38 40.4 -2.1 4.1 -3.8 7.4 -3.9 7.4 -0.1 0 -1.8 -3.3 -3.9 -7.4z m-129.8 -93.9 c1.9 -2.9 2.2 -4.6 2.2 -13.6 0 -9.8 -0.1 -10.3 -2.7 -12.9 l-2.8 -2.7 -0.3 13.4 c-0.1 8.2 -0.7 14 -1.4 14.8 -0.7 0.9 -2.7 1.3 -5.2 1.1 l-4.1 -0.3 -0.3 -15.2 -0.3 -15.3 5.1 0 c3.7 0 5 -0.4 5 -1.4 0 -1.1 -1.4 -1.6 -4.7 -1.8 l-4.8 -0.3 0 -12 0 -12 3.8 -0.3 c6 -0.5 6.7 0.7 6.7 11.9 0 5.5 0.3 9.9 0.7 9.9 0.3 0 1.5 -0.7 2.5 -1.7 1.5 -1.3 1.8 -3.1 1.8 -9.7 0 -11.9 -0.7 -12.6 -12.6 -12.6 l-9.4 0 0 32 0 32 9.3 0 9.2 0 2.3 -3.3z m15.6 -1.9 c0.4 -2.9 0.9 -7.2 1.2 -9.5 l0.6 -4.3 6.3 0 6.4 0 0.6 5.8 c1.4 13 1.5 13.2 4.2 13.2 2.5 0 2.6 -0.1 1.9 -6 -1.6 -13.6 -3.7 -33.1 -4.6 -42 -1.8 -17.1 -1.3 -16 -7.5 -16 -4.9 0 -5.5 0.3 -5.9 2.3 -0.3 1.2 -1.9 13.9 -3.6 28.2 -1.7 14.3 -3.4 27.7 -3.7 29.8 -0.5 3.2 -0.3 3.7 1.4 3.7 1.7 0 2.2 -0.9 2.7 -5.2z m41.6 -25.8 l0 -31 3 0 c1.7 0 3 -0.4 3 -1 0 -0.6 -3.9 -1 -9.7 -1 -5.9 0 -9.3 0.4 -8.8 0.9 0.6 0.5 2.1 1.1 3.5 1.3 l2.5 0.3 0.3 30.8 0.2 30.7 3 0 3 0 0 -31z m35.3 28.1 c1.3 -2.2 1.7 -5.2 1.7 -12.5 0 -5.3 -0.3 -9.6 -0.6 -9.6 -0.3 0 -1.4 0.5 -2.5 1 -1.7 0.9 -1.9 2.2 -1.9 10.4 0 10 -0.3 10.6 -5.5 10.6 -5.7 0 -5.5 1.2 -5.5 -29.5 0 -30.7 -0.2 -29.5 5.5 -29.5 5 0 5.5 0.7 5.5 8.5 0 6.7 0.2 7.4 2.5 8.9 l2.5 1.6 0 -8.3 c0 -11.7 -0.8 -12.7 -11 -12.7 -11.5 0 -11 -1.4 -11 31.3 0 33.5 -0.3 32.7 11 32.7 7.3 0 7.6 -0.1 9.3 -2.9z m16.3 -6.3 l0.9 -9.3 6.1 -0.3 c7.1 -0.3 6.9 -0.7 8 11.6 0.7 7.1 0.7 7.2 3.6 7.2 2.7 0 2.9 -0.2 2.4 -2.7 -0.9 -4.4 -6.6 -54.9 -6.6 -58.3 l0 -3 -6 0 c-3.3 0 -6 0.2 -6 0.5 0 0.8 -7 58.6 -7.4 61.3 -0.2 1.7 0.2 2.2 1.9 2.2 2.1 0 2.3 -0.6 3.1 -9.2z m47.8 6 c0.3 -1.8 1.2 -10 2.1 -18.3 0.8 -8.2 2.2 -20.6 3 -27.5 1.9 -15.7 1.9 -15 -0.5 -15 -1.1 0 -2 0.3 -2 0.8 0 0.4 -0.9 9.5 -2 20.2 -1.1 10.7 -2 20.3 -2 21.3 0 1.5 -0.7 1.8 -3.7 1.5 l-3.8 -0.3 -1.7 -14 c-0.9 -7.7 -2 -17.5 -2.4 -21.7 -0.6 -7.3 -0.8 -7.8 -3 -7.8 -1.4 0 -2.4 0.6 -2.4 1.4 0 0.8 1.6 14 3.5 29.3 1.9 15.3 3.5 29 3.5 30.6 0 2.6 0.2 2.7 5.4 2.7 5.3 0 5.4 -0.1 6 -3.2z m34.6 1.8 c0 -1.1 -1.5 -1.6 -5.2 -1.8 l-5.3 -0.3 -0.3 -15.2 -0.3 -15.2 4.1 -0.3 c5.2 -0.4 5.2 -2.2 0 -2.6 l-4.1 -0.3 0.3 -12.2 0.3 -12.2 4.8 -0.3 c7.8 -0.5 5.3 -2.2 -3.3 -2.2 l-8 0 0 32 0 32 8.5 0 c6.8 0 8.5 -0.3 8.5 -1.4z m15.6 -4.3 c0.4 -3.1 0.4 -10.5 0.1 -16.4 -0.7 -12.2 -0.2 -13.4 5.8 -12.7 2.3 0.3 3.5 0 3.5 -0.8 0 -0.8 -1.8 -1.4 -4.7 -1.6 l-4.8 -0.3 -0.1 -10.5 c-0.2 -13.7 -0.1 -14 4.5 -14 5.5 0 6.1 1.1 6.1 12.2 0 7.7 0.3 9.8 1.4 9.8 4.7 0 6.6 -16.2 2.5 -21.4 -1.9 -2.5 -2.5 -2.6 -11.5 -2.6 l-9.4 0 0 32 0 32 2.9 0 c2.8 0 3 -0.2 3.7 -5.7z m16.4 -7.2 c0 -14.2 -0.8 -18.1 -4 -18.1 -1.9 0 -2 0.6 -2 15.5 l0 15.5 3 0 3 0 0 -12.9z m15 -6.1 l0 -19 3.9 0 3.9 0 1.1 5.8 c0.6 3.1 2.2 10.6 3.6 16.6 1.4 6 2.5 11.9 2.5 13.2 0 2.1 0.5 2.4 4 2.4 l4 0 0 -32 0 -32 -2.2 0 c-2.1 0 -2.1 0.1 -1.6 17.3 0.3 9.4 0.3 17.8 0.1 18.5 -0.3 0.6 -2 1.2 -3.8 1.2 -3.1 0 -3.4 -0.2 -4 -4.2 -0.8 -5.4 -5.4 -28.7 -6.1 -31 -0.4 -1.3 -1.6 -1.8 -4.5 -1.8 l-3.9 0 0 32 c0 27.8 0.2 32 1.5 32 1.3 0 1.5 -2.8 1.5 -19z m37.6 9.8 l0.9 -9.3 6.1 -0.3 c7.2 -0.3 7.1 -0.6 8 10.8 l0.7 8 3.3 0 c3.1 0 3.3 -0.2 2.5 -2.2 -0.5 -1.3 -1.1 -5.4 -1.5 -9.3 -0.4 -3.8 -1.6 -14.2 -2.6 -23 -1 -8.8 -2.2 -19 -2.6 -22.7 l-0.6 -6.8 -5.8 0 -5.8 0 -0.6 5.8 c-0.4 3.1 -2 16.4 -3.7 29.5 -3.5 28.5 -3.5 28.7 -1 28.7 1.6 0 1.9 -1.2 2.7 -9.2z"/>
  <path d="M170.5 205.9 c-0.4 -0.6 -0.4 -6.9 0 -14 l0.7 -13 4.2 0.3 4.1 0.3 0.8 12.5 c0.4 6.8 0.5 13 0.3 13.7 -0.6 1.6 -9.2 1.8 -10.1 0.2z"/>
  <path d="M262.5 206 c-0.9 -1.4 0.5 -21.1 1.7 -23.2 0.5 -1.2 2 -1.8 4.2 -1.8 l3.3 0 0.6 8.3 c0.4 4.5 0.7 10.3 0.7 13 l0 4.7 -4.9 0 c-2.8 0 -5.3 -0.5 -5.6 -1z"/>
  <path d="M429.4 205.5 c-0.4 -0.9 -0.1 -6.4 0.5 -12.3 0.6 -5.9 1.1 -11.3 1.1 -11.9 0 -0.8 1.4 -1.3 3.9 -1.3 l3.8 0 0.6 8.3 c0.4 4.5 0.7 10.6 0.7 13.5 l0 5.2 -5 0 c-3.6 0 -5.2 -0.4 -5.6 -1.5z"/>
 </g>
 <g fill="#000000">
  <path d="M128 197 l0 -35 12.4 0 c15.8 0 15.6 -0.2 15.6 15.7 l0 11.2 -3.2 2.5 c-1.8 1.4 -2.7 2.6 -2 2.6 0.7 0 2.4 1.1 3.7 2.5 2.4 2.3 2.5 2.9 2.5 15.6 0 12.1 -0.2 13.6 -2.2 16.6 l-2.3 3.3 -12.2 0 -12.3 0 0 -35z m15.9 24.6 c0.8 -0.9 1.1 -5.1 0.9 -12.2 -0.3 -10.4 -0.4 -10.9 -2.5 -11.2 -2.3 -0.3 -2.3 -0.2 -2.3 11.6 0 6.5 0.3 12.2 0.7 12.5 1 1.1 1.9 0.8 3.2 -0.7z m0.5 -34.2 c0.3 -0.9 0.6 -4.6 0.6 -8.4 0 -6.8 -1.5 -10 -4 -8.5 -1.1 0.7 -1.4 16.7 -0.3 17.8 1.1 1.2 3.1 0.7 3.7 -0.9z"/>
  <path d="M159.5 228.8 c0.8 -4.8 7.4 -58.7 7.7 -63 l0.2 -3.8 8.8 0 8.7 0 0.6 3.3 c0.3 1.7 0.9 7.5 1.5 12.7 0.5 5.2 1.4 13.6 2 18.5 0.5 5 1.5 13.3 2 18.5 0.6 5.2 1.3 11.2 1.6 13.3 l0.6 3.7 -6.4 0 -6.3 0 -0.2 -4.3 c-0.1 -2.3 -0.5 -6.6 -0.8 -9.4 -0.6 -5.2 -0.7 -5.3 -4 -5.3 -3.6 0 -3.3 -0.8 -5.1 13.8 l-0.7 5.2 -5.4 0 -5.4 0 0.6 -3.2z m17.6 -33.8 c-0.2 -4.7 -0.4 -9.4 -0.5 -10.4 0 -1.1 -0.6 -2.1 -1.2 -2.3 -1.2 -0.4 -2.9 19.1 -1.8 20.8 0.3 0.6 1.3 0.9 2.2 0.7 1.5 -0.3 1.6 -1.5 1.3 -8.8z"/>
  <path d="M199.5 201.3 l0 -30.8 -3 -0.5 c-2.6 -0.4 -3 -1 -3.3 -4.3 l-0.3 -3.7 12.5 0 12.6 0 0 4 c0 3.8 -0.2 4 -3 4 l-3 0 0 31 0 31 -6.2 0 -6.3 0 0 -30.7z"/>
  <path d="M222.7 229.1 c-1.5 -2.6 -1.7 -6.4 -1.7 -32.8 0 -25.4 0.2 -30.2 1.6 -32.1 1.4 -2 2.3 -2.2 12.4 -2.2 14.2 0 14.1 -0.1 14.1 17 0.1 6.7 -0.1 12.4 -0.4 12.6 -0.3 0.3 -2.8 -0.9 -5.6 -2.6 l-5.1 -3.2 0 -7.3 c0 -5 -0.4 -7.5 -1.2 -7.8 -3.6 -1.2 -3.8 0 -3.8 25.8 0 25.8 0.2 27 3.8 25.8 0.8 -0.3 1.2 -3.2 1.2 -9.8 l0 -9.3 4.6 -2.6 c2.6 -1.4 5.2 -2.6 5.8 -2.6 0.8 0 1 4.2 0.9 14 -0.2 11.3 -0.6 14.6 -2 17 l-1.7 3 -10.6 0 -10.6 0 -1.7 -2.9z"/>
  <path d="M252 230.3 c0 -1 1.8 -16.6 4 -34.6 2.2 -18 4 -33 4 -33.2 0 -0.3 4.1 -0.5 9 -0.5 l9 0 0 3.3 c0 1.7 1.6 16.5 3.5 32.7 1.9 16.2 3.5 30.5 3.5 31.7 0 2.1 -0.4 2.3 -5.9 2.3 l-5.8 0 -0.7 -7.2 c-1 -11.3 -1.3 -12 -5 -11.6 l-3.1 0.3 -0.9 9.3 -0.9 9.2 -5.3 0 c-4.5 0 -5.4 -0.3 -5.4 -1.7z m17.7 -33 c-0.4 -3.8 -0.7 -8.4 -0.7 -10.2 0 -2.8 -0.3 -3.2 -1.2 -2.3 -1.2 1.2 -3.1 17 -2.2 18.4 0.3 0.5 1.5 0.8 2.6 0.8 2 0 2.1 -0.4 1.5 -6.7z"/>
  <path d="M294 229.3 c0 -2.4 -5.5 -47.2 -7.6 -62.6 l-0.7 -4.7 6 0 6 0 0.6 6.3 c1.5 16.5 4 36.3 4.8 37.2 0.6 0.5 0.9 0.1 0.9 -1 0 -1.1 0.9 -10.8 2 -21.5 1.1 -10.7 2 -19.8 2 -20.2 0 -0.5 2.4 -0.8 5.4 -0.8 l5.5 0 -0.5 3.2 c-0.5 4.2 -4 36.2 -5.4 49.8 -0.6 5.8 -1.3 12 -1.7 13.8 l-0.5 3.2 -8.4 0 -8.4 0 0 -2.7z"/>
  <path d="M323 197 l0 -35 11.3 0 11.3 0 -0.4 3.9 c-0.4 4 -0.4 4 -5.1 4.3 l-4.6 0.3 -0.3 9.2 -0.3 9.2 4.3 0.3 c4.3 0.3 4.3 0.3 4.3 4.3 0 4 0 4 -4.3 4.3 l-4.3 0.3 0.3 12.2 0.3 12.2 5.5 0.5 5.4 0.5 0.3 4.3 0.3 4.2 -12 0 -12 0 0 -35z"/>
  <path d="M349 197 l0 -35 12.4 0 c12.3 0 12.5 0 14.5 2.6 1.8 2.3 2.1 4.1 2.1 12.6 0 10.7 -1.4 14.8 -5.2 14.8 -2.7 0 -1.7 2.4 1.1 2.8 1.2 0.2 2.6 1.4 3.1 2.6 0.4 1.2 1 9.5 1.2 18.4 l0.3 16.2 -6.2 0 -6.3 0 0 -16.4 c0 -12.9 -0.3 -16.6 -1.4 -17.5 -1 -0.8 -1.6 -0.9 -2.1 -0.1 -0.3 0.5 -0.6 8.4 -0.6 17.5 l0 16.5 -6.4 0 -6.5 0 0 -35z m16.4 -9.6 c1.3 -3.4 0.6 -15.1 -0.9 -16.4 -0.9 -0.7 -1.8 -1 -2.1 -0.7 -0.4 0.4 -0.8 14.9 -0.5 18 0.2 1.4 2.9 0.7 3.5 -0.9z"/>
  <path d="M383.5 197 l0 -35 7.2 0 c6 0 7.3 0.3 7.7 1.8 0.7 2.3 5.3 25.6 6.1 31 1.3 8.1 1.8 3.2 1.6 -14.8 l-0.2 -18 5 0 5.1 0 0 35 0 35 -7 0 c-6.7 0 -7 -0.1 -7 -2.4 0 -1.3 -1.1 -7.2 -2.5 -13.2 -1.4 -6 -3 -13.5 -3.6 -16.6 -0.6 -3.2 -1.6 -5.8 -2.1 -5.8 -0.7 0 -0.9 6.6 -0.6 19 l0.4 19 -5.1 0 -5 0 0 -35z"/>
  <path d="M419 230.8 c0 -0.7 1.6 -14.1 3.5 -29.8 1.9 -15.7 3.8 -30.9 4.1 -33.7 l0.6 -5.3 8.9 0 c7.8 0 8.9 0.2 8.9 1.8 0 3 5.7 51.1 7.7 64.5 l0.5 3.7 -6.6 0 c-6.5 0 -6.6 0 -6.7 -2.7 -0.1 -3.9 -0.8 -11.4 -1.5 -14.1 -0.4 -1.9 -1 -2.3 -3.7 -2 l-3.2 0.3 -0.9 9.3 -0.9 9.2 -5.3 0 c-3.7 0 -5.4 -0.4 -5.4 -1.2z m17.5 -37 c-0.7 -9.8 -1 -11.6 -1.9 -10.7 -0.6 0.7 -2.4 19.3 -1.9 20.2 0.2 0.4 1.3 0.7 2.5 0.7 1.9 0 2 -0.4 1.3 -10.2z"/>
 </g>
</svg>